<mxfile host="app.diagrams.net" modified="2022-09-13T02:58:58.807Z" agent="5.0 (Windows NT 10.0; WOW64) AppleWebKit/537.36 (KHTML, like Gecko) Chrome/75.0.3770.100 Safari/537.36" etag="GIUMN6rPwGyLSaOeL6Fh" version="20.2.8" type="github" pages="2">
  <diagram id="C5RBs43oDa-KdzZeNtuy" name="企业认证流程">
    <mxGraphModel dx="1038" dy="576" grid="1" gridSize="10" guides="1" tooltips="1" connect="1" arrows="1" fold="1" page="1" pageScale="1" pageWidth="827" pageHeight="1169" math="0" shadow="0">
      <root>
        <mxCell id="WIyWlLk6GJQsqaUBKTNV-0" />
        <mxCell id="WIyWlLk6GJQsqaUBKTNV-1" parent="WIyWlLk6GJQsqaUBKTNV-0" />
        <mxCell id="xceOTYyBqCTmzoK6qaq5-3" value="4A" style="shape=umlLifeline;perimeter=lifelinePerimeter;whiteSpace=wrap;html=1;container=1;collapsible=0;recursiveResize=0;outlineConnect=0;" vertex="1" parent="WIyWlLk6GJQsqaUBKTNV-1">
          <mxGeometry x="300" y="50" width="100" height="620" as="geometry" />
        </mxCell>
        <mxCell id="xceOTYyBqCTmzoK6qaq5-9" value="" style="html=1;points=[];perimeter=orthogonalPerimeter;" vertex="1" parent="xceOTYyBqCTmzoK6qaq5-3">
          <mxGeometry x="45" y="80" width="10" height="60" as="geometry" />
        </mxCell>
        <mxCell id="xceOTYyBqCTmzoK6qaq5-39" value="" style="html=1;points=[];perimeter=orthogonalPerimeter;" vertex="1" parent="xceOTYyBqCTmzoK6qaq5-3">
          <mxGeometry x="45" y="160" width="10" height="60" as="geometry" />
        </mxCell>
        <mxCell id="xceOTYyBqCTmzoK6qaq5-48" value="" style="html=1;points=[];perimeter=orthogonalPerimeter;" vertex="1" parent="xceOTYyBqCTmzoK6qaq5-3">
          <mxGeometry x="45" y="270" width="10" height="50" as="geometry" />
        </mxCell>
        <mxCell id="xceOTYyBqCTmzoK6qaq5-5" value="" style="shape=umlLifeline;participant=umlActor;perimeter=lifelinePerimeter;whiteSpace=wrap;html=1;container=1;collapsible=0;recursiveResize=0;verticalAlign=top;spacingTop=36;outlineConnect=0;" vertex="1" parent="WIyWlLk6GJQsqaUBKTNV-1">
          <mxGeometry x="100" y="50" width="20" height="620" as="geometry" />
        </mxCell>
        <mxCell id="xceOTYyBqCTmzoK6qaq5-7" value="" style="html=1;points=[];perimeter=orthogonalPerimeter;" vertex="1" parent="xceOTYyBqCTmzoK6qaq5-5">
          <mxGeometry x="5" y="80" width="10" height="60" as="geometry" />
        </mxCell>
        <mxCell id="xceOTYyBqCTmzoK6qaq5-18" value="" style="html=1;points=[];perimeter=orthogonalPerimeter;" vertex="1" parent="xceOTYyBqCTmzoK6qaq5-5">
          <mxGeometry x="5" y="200" width="10" height="80" as="geometry" />
        </mxCell>
        <mxCell id="xceOTYyBqCTmzoK6qaq5-6" value="电子签章" style="shape=umlLifeline;perimeter=lifelinePerimeter;whiteSpace=wrap;html=1;container=1;collapsible=0;recursiveResize=0;outlineConnect=0;" vertex="1" parent="WIyWlLk6GJQsqaUBKTNV-1">
          <mxGeometry x="610" y="50" width="100" height="620" as="geometry" />
        </mxCell>
        <mxCell id="xceOTYyBqCTmzoK6qaq5-12" value="" style="html=1;points=[];perimeter=orthogonalPerimeter;" vertex="1" parent="xceOTYyBqCTmzoK6qaq5-6">
          <mxGeometry x="45" y="80" width="10" height="60" as="geometry" />
        </mxCell>
        <mxCell id="xceOTYyBqCTmzoK6qaq5-41" value="" style="html=1;points=[];perimeter=orthogonalPerimeter;" vertex="1" parent="xceOTYyBqCTmzoK6qaq5-6">
          <mxGeometry x="45" y="170" width="10" height="120" as="geometry" />
        </mxCell>
        <mxCell id="xceOTYyBqCTmzoK6qaq5-53" value="" style="html=1;points=[];perimeter=orthogonalPerimeter;" vertex="1" parent="xceOTYyBqCTmzoK6qaq5-6">
          <mxGeometry x="45" y="310" width="10" height="80" as="geometry" />
        </mxCell>
        <mxCell id="xceOTYyBqCTmzoK6qaq5-10" value="" style="edgeStyle=orthogonalEdgeStyle;rounded=0;orthogonalLoop=1;jettySize=auto;html=1;" edge="1" parent="WIyWlLk6GJQsqaUBKTNV-1" source="xceOTYyBqCTmzoK6qaq5-7" target="xceOTYyBqCTmzoK6qaq5-9">
          <mxGeometry relative="1" as="geometry" />
        </mxCell>
        <mxCell id="xceOTYyBqCTmzoK6qaq5-11" value="企业认证" style="edgeLabel;html=1;align=center;verticalAlign=middle;resizable=0;points=[];" vertex="1" connectable="0" parent="xceOTYyBqCTmzoK6qaq5-10">
          <mxGeometry x="-0.4017" relative="1" as="geometry">
            <mxPoint as="offset" />
          </mxGeometry>
        </mxCell>
        <mxCell id="xceOTYyBqCTmzoK6qaq5-13" value="" style="edgeStyle=orthogonalEdgeStyle;rounded=0;orthogonalLoop=1;jettySize=auto;html=1;entryX=0.14;entryY=0.18;entryDx=0;entryDy=0;entryPerimeter=0;exitX=0.98;exitY=0.207;exitDx=0;exitDy=0;exitPerimeter=0;" edge="1" parent="WIyWlLk6GJQsqaUBKTNV-1" source="xceOTYyBqCTmzoK6qaq5-9" target="xceOTYyBqCTmzoK6qaq5-12">
          <mxGeometry relative="1" as="geometry" />
        </mxCell>
        <mxCell id="xceOTYyBqCTmzoK6qaq5-14" value="传企业编码等信息获取内嵌页" style="edgeLabel;html=1;align=center;verticalAlign=middle;resizable=0;points=[];" vertex="1" connectable="0" parent="xceOTYyBqCTmzoK6qaq5-13">
          <mxGeometry x="-0.2813" relative="1" as="geometry">
            <mxPoint x="51" y="-2" as="offset" />
          </mxGeometry>
        </mxCell>
        <mxCell id="xceOTYyBqCTmzoK6qaq5-37" value="return" style="html=1;verticalAlign=bottom;endArrow=open;dashed=1;endSize=8;rounded=0;exitX=0.06;exitY=0.86;exitDx=0;exitDy=0;exitPerimeter=0;entryX=1.14;entryY=0.807;entryDx=0;entryDy=0;entryPerimeter=0;" edge="1" parent="WIyWlLk6GJQsqaUBKTNV-1" source="xceOTYyBqCTmzoK6qaq5-12" target="xceOTYyBqCTmzoK6qaq5-9">
          <mxGeometry relative="1" as="geometry">
            <mxPoint x="550" y="250" as="sourcePoint" />
            <mxPoint x="470" y="250" as="targetPoint" />
          </mxGeometry>
        </mxCell>
        <mxCell id="xceOTYyBqCTmzoK6qaq5-38" value="认证URL、&lt;span style=&quot;font-family: &amp;quot;Pingfang SC&amp;quot;, &amp;quot;Helvetica neue&amp;quot;, Arial, &amp;quot;Hiragino Sans gb&amp;quot;, &amp;quot;Microsoft Yahei&amp;quot;, Simsun, sans-serif; font-size: 15px; letter-spacing: 0.12px; text-align: left; background-color: rgb(245, 242, 240);&quot;&gt;flowId&lt;/span&gt;" style="text;html=1;align=center;verticalAlign=middle;resizable=0;points=[];autosize=1;strokeColor=none;fillColor=none;" vertex="1" parent="WIyWlLk6GJQsqaUBKTNV-1">
          <mxGeometry x="450" y="174" width="120" height="30" as="geometry" />
        </mxCell>
        <mxCell id="xceOTYyBqCTmzoK6qaq5-40" style="edgeStyle=orthogonalEdgeStyle;rounded=0;orthogonalLoop=1;jettySize=auto;html=1;entryX=-0.02;entryY=0.167;entryDx=0;entryDy=0;entryPerimeter=0;" edge="1" parent="WIyWlLk6GJQsqaUBKTNV-1" source="xceOTYyBqCTmzoK6qaq5-39" target="xceOTYyBqCTmzoK6qaq5-41">
          <mxGeometry relative="1" as="geometry">
            <mxPoint x="520" y="250" as="targetPoint" />
          </mxGeometry>
        </mxCell>
        <mxCell id="xceOTYyBqCTmzoK6qaq5-42" value="弹出认证URL" style="edgeLabel;html=1;align=center;verticalAlign=middle;resizable=0;points=[];" vertex="1" connectable="0" parent="xceOTYyBqCTmzoK6qaq5-40">
          <mxGeometry x="-0.2275" y="2" relative="1" as="geometry">
            <mxPoint as="offset" />
          </mxGeometry>
        </mxCell>
        <mxCell id="xceOTYyBqCTmzoK6qaq5-46" style="edgeStyle=orthogonalEdgeStyle;rounded=0;orthogonalLoop=1;jettySize=auto;html=1;entryX=0.06;entryY=0.587;entryDx=0;entryDy=0;entryPerimeter=0;" edge="1" parent="WIyWlLk6GJQsqaUBKTNV-1" source="xceOTYyBqCTmzoK6qaq5-18" target="xceOTYyBqCTmzoK6qaq5-41">
          <mxGeometry relative="1" as="geometry">
            <mxPoint x="650" y="290" as="targetPoint" />
          </mxGeometry>
        </mxCell>
        <mxCell id="xceOTYyBqCTmzoK6qaq5-47" value="按页面要求输入信息认证" style="edgeLabel;html=1;align=center;verticalAlign=middle;resizable=0;points=[];" vertex="1" connectable="0" parent="xceOTYyBqCTmzoK6qaq5-46">
          <mxGeometry x="-0.3725" y="-2" relative="1" as="geometry">
            <mxPoint as="offset" />
          </mxGeometry>
        </mxCell>
        <mxCell id="xceOTYyBqCTmzoK6qaq5-49" value="dispatch" style="html=1;verticalAlign=bottom;endArrow=block;rounded=0;entryX=1.14;entryY=0.208;entryDx=0;entryDy=0;entryPerimeter=0;" edge="1" parent="WIyWlLk6GJQsqaUBKTNV-1" target="xceOTYyBqCTmzoK6qaq5-48">
          <mxGeometry width="80" relative="1" as="geometry">
            <mxPoint x="650" y="330" as="sourcePoint" />
            <mxPoint x="200" y="440" as="targetPoint" />
          </mxGeometry>
        </mxCell>
        <mxCell id="xceOTYyBqCTmzoK6qaq5-52" value="回调通知认证结果" style="text;html=1;align=center;verticalAlign=middle;resizable=0;points=[];autosize=1;strokeColor=none;fillColor=none;" vertex="1" parent="WIyWlLk6GJQsqaUBKTNV-1">
          <mxGeometry x="440" y="330" width="120" height="30" as="geometry" />
        </mxCell>
        <mxCell id="xceOTYyBqCTmzoK6qaq5-54" style="edgeStyle=orthogonalEdgeStyle;rounded=0;orthogonalLoop=1;jettySize=auto;html=1;entryX=-0.02;entryY=0.53;entryDx=0;entryDy=0;entryPerimeter=0;" edge="1" parent="WIyWlLk6GJQsqaUBKTNV-1" source="xceOTYyBqCTmzoK6qaq5-48" target="xceOTYyBqCTmzoK6qaq5-53">
          <mxGeometry relative="1" as="geometry">
            <Array as="points">
              <mxPoint x="350" y="380" />
              <mxPoint x="505" y="380" />
              <mxPoint x="505" y="402" />
            </Array>
          </mxGeometry>
        </mxCell>
        <mxCell id="xceOTYyBqCTmzoK6qaq5-55" value="查询企业、经办人详细信息" style="edgeLabel;html=1;align=center;verticalAlign=middle;resizable=0;points=[];" vertex="1" connectable="0" parent="xceOTYyBqCTmzoK6qaq5-54">
          <mxGeometry x="-0.2289" y="-2" relative="1" as="geometry">
            <mxPoint as="offset" />
          </mxGeometry>
        </mxCell>
      </root>
    </mxGraphModel>
  </diagram>
  <diagram id="YyrooUNvBGex4DRZSpYs" name="外部人员认证流程">
    <mxGraphModel dx="1038" dy="576" grid="1" gridSize="10" guides="1" tooltips="1" connect="1" arrows="1" fold="1" page="1" pageScale="1" pageWidth="827" pageHeight="1169" math="0" shadow="0">
      <root>
        <mxCell id="0" />
        <mxCell id="1" parent="0" />
      </root>
    </mxGraphModel>
  </diagram>
</mxfile>
